<?xml version="1.0" encoding="UTF-8"?>
<!DOCTYPE svg PUBLIC "-//W3C//DTD SVG 1.1//EN" "http://www.w3.org/Graphics/SVG/1.1/DTD/svg11.dtd">
<!-- Creator: CorelDRAW -->
<svg xmlns="http://www.w3.org/2000/svg" xml:space="preserve" width="8.27057in" height="6.9963in" version="1.1" style="shape-rendering:geometricPrecision; text-rendering:geometricPrecision; image-rendering:optimizeQuality; fill-rule:evenodd; clip-rule:evenodd"
viewBox="0 0 383.34 324.28"
 xmlns:xlink="http://www.w3.org/1999/xlink"
 xmlns:xodm="http://www.corel.com/coreldraw/odm/2003">
 <defs>
  <style type="text/css">
   <![CDATA[
    .fil0 {fill:#010101}
   ]]>
  </style>
 </defs>
 <g id="Layer_x0020_1">
  <metadata id="CorelCorpID_0Corel-Layer"/>
  <path class="fil0" d="M369.03 260.99l-0 32.15c-17.35,0.63 -10.69,6.06 -15.87,16.39l-34.51 0.01c-7.84,-19.75 4.98,-16.22 -55.13,-16.35l-178.92 -0.01c-5.47,-0.01 -11.34,-0.9 -14.56,2.92 -2.3,2.73 -2.88,9.48 -4.73,13.38l-34.54 0.09c-1.51,-3.2 -1.85,-9.45 -3.72,-12.43 -2.72,-4.35 -6.56,-3.72 -12.61,-4.08l-0.06 -76.99 354.55 0.14 0.12 31.14c-19.53,0.71 -40.5,-0.01 -60.19,-0.06l-44.86 -0.11c-12.31,-0.06 -11.08,13.56 -0.95,13.63l45.33 0.05c19.9,0.07 40.92,-0.62 60.66,0.14zm-47.86 -147.86l24.2 -0.04 0.04 88.64c-3.02,0.71 -20.37,0.45 -24.19,0.16l-0.05 -88.76zm-244.1 -0.4l85.56 0c1.59,15.78 -7.99,48.1 26.42,50.44 -0.1,5.74 -0.01,11.48 -0.04,17.22 -0.03,5.82 0.75,10.72 6.77,10.84 6,0.12 7.09,-4.73 7.07,-10.37 -0.03,-5.91 0.02,-11.8 0.03,-17.71 12.29,-0.37 19.79,-6.01 23.86,-14.31 3.96,-8.09 2.41,-25.51 2.51,-35.73l77.82 -0.04 0.08 88.88 -230.04 -0.29c-0.51,-2.09 -0.58,-83.06 -0.05,-88.93zm-38.74 0.02c3.06,-0.69 21.13,-0.49 24.83,-0.18 0.63,6.96 0.51,86.48 -0.27,89.04l-24.34 0.12 -0.22 -88.98zm176.48 27.11c-0.37,4.02 -3.3,6.75 -6.25,7.99 -3.3,1.39 -22.12,1.34 -25.44,-0.14 -2.62,-1.17 -5.67,-4.33 -5.93,-7.84 -1.17,-1.88 -0.84,-23.87 -0.33,-27.07 2.17,-0.63 36.18,-0.61 38.28,0.02 0.6,3.37 0.74,25.22 -0.34,27.03zm136.71 -41.03l-107.55 0.1c-0.72,-0.89 -0.62,1.41 -0.64,-1.56l0.23 -40.57 108.49 0.22c0.64,3.33 0.27,25.37 0.25,31.76 -0.01,1.75 -0.04,3.5 -0.03,5.25 0.04,3.91 0.53,4.03 -0.75,4.8zm-188.6 -0.1c-0.69,-8.97 -0.13,-46.51 -0.14,-58.62 -0.01,-10.84 -1.65,-18.74 6.09,-23.57 4.82,-3.01 20.53,-1.8 27.38,-1.77 7.71,0.04 21.98,-1.55 27.46,2.17 7.2,4.88 5.48,13.07 5.47,23.65 -0.01,12.18 0.6,49.08 -0.13,58.24l-66.14 -0.1zm-14.32 -41.25l-0.25 41.1c-9.84,0.49 -115.11,0.16 -115.98,-0.32 -0.66,-0.72 -0.21,0.29 -0.5,-0.93l-0.06 -3.77c0.03,-7.91 -0.34,-32.38 0.16,-36.41 2.95,-1.19 50.99,-0.48 58.35,-0.45l57.23 0.08c1.22,0.32 0.42,-0.3 1.03,0.7zm-124.86 53.8c1.39,0.64 0.76,7.24 0.76,10.43 0.02,10.11 0.41,77.24 -0.24,79.92l-12.98 0.48c-4.09,-0.11 -7.68,3.44 -9.18,5.98 -2.44,4.13 -1.88,8.46 -1.89,13.81 -0.01,10.5 -0.02,20.99 -0.01,31.49 0.01,6.39 -0.87,41.12 1.01,45.71 1.39,3.41 4.28,6.18 8.16,7.33 1.16,0.13 2.03,0.23 3.19,0.3l2.68 0.36c0.09,0.03 0.23,0.11 0.35,0.17 3.74,20.42 8.13,16.76 32.29,16.74 29.81,-0.02 26.87,2.48 32.89,-16.2l222.37 -0.06c3.66,5.61 1.06,12.62 8.77,15.63 3.07,1.19 19.51,0.63 24.15,0.63 4.61,0 20.67,0.51 23.81,-0.53 7.15,-2.36 5.92,-8.96 8.76,-15.97 6.18,-0.1 9.9,-1.84 12.34,-5.38 2.93,-4.24 2.2,-9.9 2.2,-15.81 0.02,-11.93 0.03,-23.86 0.01,-35.78 -0.02,-11.74 0.4,-24.12 0,-35.78 -0.19,-5.6 -3.2,-9.22 -6.86,-11.16 -4.45,-2.35 -10.97,-1.45 -16.52,-1.57l0.01 -90.46c7.21,-3.07 6.63,-11.26 6.64,-18.01 0.01,-8.27 0,-16.54 -0,-24.81 -0,-8.42 1.27,-15.85 -2.95,-21.71 -3.88,-5.39 -12.13,-4.57 -20.28,-4.59l-74.43 -0.01c-7.51,-0.01 -17.98,0.61 -25.13,-0.13 -1.24,-17.7 2.13,-24.97 -9.46,-35.34 -9.91,-8.86 -22.67,-6.67 -37.93,-6.71 -15.03,-0.04 -28.31,-2.15 -38.17,6.47 -13.26,11.58 -8.37,22.96 -9.67,35.6 -9.46,0.65 -39.75,0.12 -51.4,0.11 -17.17,-0.01 -34.36,-0.04 -51.53,0.01 -24.44,0.07 -28.04,-1.2 -27.97,23.44 0.02,4.95 -0.5,34.51 0.49,37.96 1.18,4.11 3,5.42 5.73,7.44zm122.82 127.08c-19.68,5.15 -12.41,33.89 7.05,29.61 7.03,-1.55 13.45,-9.07 11.38,-18.16 -1.64,-7.16 -9.12,-13.88 -18.43,-11.44zm-50.82 0.14c-4.23,1.24 -6.78,3.2 -8.79,6.26 -7.91,12.01 3.36,26.8 16.76,22.96 19.06,-5.46 10.84,-34.73 -7.97,-29.22zm-31.78 19.18c0.82,-3.24 0.76,-4.03 0.34,-7.42 0.14,-6.39 -7.93,-12.77 -15.5,-12.4 -17.46,0.84 -19.38,26.74 -2.23,30.2 8.24,1.66 16.36,-4.31 17.39,-10.38z"/>
 </g>
</svg>
