<?xml version="1.0" encoding="UTF-8"?>
<!DOCTYPE svg PUBLIC "-//W3C//DTD SVG 1.1//EN" "http://www.w3.org/Graphics/SVG/1.1/DTD/svg11.dtd">
<!-- Creator: CorelDRAW -->
<svg xmlns="http://www.w3.org/2000/svg" xml:space="preserve" width="4.54172in" height="3.81588in" version="1.1" style="shape-rendering:geometricPrecision; text-rendering:geometricPrecision; image-rendering:optimizeQuality; fill-rule:evenodd; clip-rule:evenodd"
viewBox="0 0 2462.51 2068.96"
 xmlns:xlink="http://www.w3.org/1999/xlink"
 xmlns:xodm="http://www.corel.com/coreldraw/odm/2003">
 <defs>
  <style type="text/css">
   <![CDATA[
    .fil0 {fill:#020202}
   ]]>
  </style>
 </defs>
 <g id="Layer_x0020_1">
  <metadata id="CorelCorpID_0Corel-Layer"/>
  <g>
   <path class="fil0" d="M220.36 1044.71l-158.52 -116.54c-8.81,-6.65 -17.8,-12.55 -26.84,-18.65 -6.56,-4.42 -13.48,-9.17 -19.03,-15.33 -13.44,-14.9 -14.93,-36.14 -14.89,-57.98 0.06,-32.94 -0.21,-65.9 -0.36,-98.83 -0.24,-53.37 -0.48,-106.74 -0.61,-160.11 -0.13,-50.95 -0.21,-101.93 0.09,-152.91 0.1,-17.46 0.23,-34.94 0.61,-52.41 0.12,-5.51 0.25,-11.03 0.5,-16.54 0.13,-2.89 0.24,-6.46 0.74,-9.31 4.25,-24.2 23.3,-33.08 40.81,-37.68 10.81,-2.84 21.95,-4.35 32.87,-5.73 11.92,-1.5 23.85,-2.8 35.76,-4.75 209.55,-34.46 419.42,-62.77 629.04,-95.82 167.65,-26.43 335.22,-55.4 503.09,-77 125.73,-16.18 251.41,-35.33 376.99,-55.19 126.83,-20.05 253.6,-40.97 380.43,-60.96 22.57,-3.56 45.51,-7 68.14,-8.41 15.55,-0.97 30.65,-0.74 45.95,1.42 15.53,2.19 30.87,6.09 46.07,10.01 23,5.92 45.93,11.87 69.06,17.22 35.61,8.23 72.52,13.57 107.38,24.91 19.89,6.47 30.79,18.82 36.05,43.33l71.92 312.45c5.62,22.62 11.09,45.51 13.73,69.27 2.77,24.86 2.71,50.97 2.71,76.24 -0,21.34 0.19,42.66 0.34,63.98 0.11,15.64 0.24,31.36 -0.14,47.03 -0.43,17.41 -1.32,41.59 -9.53,57.11 -7.93,14.99 -21.53,20.57 -34.77,24.34 -9.64,2.75 -19.55,4.62 -29.29,6.43 -13.32,2.48 -26.64,4.8 -39.95,7.37 -39.42,7.62 -78.87,14.88 -118.33,21.84l-0.52 583.99c7.86,2.23 15.67,5.94 22.97,9.61 8.52,4.28 16.92,8.98 25.56,12.91 17.21,7.8 38.35,13.17 45.39,36.57 1.36,4.52 1.74,12.16 2,17.07 0.47,8.52 0.65,17.13 0.74,25.69 0.1,8.83 0.08,17.68 -0.06,26.53 -0.1,6.2 -0.2,12.63 -0.66,18.83 -2.45,33.24 -21.43,37.85 -43.11,42.74 4.04,28.8 8.35,42.43 -6.71,72.74 -24.83,49.95 -79.85,56.59 -108.78,15.35 -16.94,-24.15 -14.64,-44.35 -11.59,-74.28 -4.09,-2.88 -8.67,-5.38 -12.88,-7.67 -7.13,-3.87 -14.39,-7.45 -21.66,-10.95 -13.63,-6.56 -27.42,-12.66 -41.06,-19.17 -19.56,-9.33 -38.68,-19.36 -58.03,-29.18 -8.95,-4.54 -19.03,-9.75 -28.83,-11.24 -9.65,-1.47 -20.07,0.63 -29.75,2.7 -20.46,4.37 -40.87,9.51 -61.36,13.87l-518.68 110.49c-138.42,29.49 -277.06,56.69 -415.26,88.57 -69.1,15.94 -138.51,28.61 -207.59,44.79 -66.15,15.49 -132.85,31.6 -199.42,42.4 1.7,1.32 3.18,2.83 4.85,5.12 12.77,17.44 8.14,56.91 8.38,80.18 0.18,16.6 -0.14,38.83 -12.13,50.79 -4.95,4.94 -11.15,7.66 -17.13,9.65 -6.44,2.15 -13.11,3.72 -19.69,5.3 0.44,2.55 1.11,5.09 1.69,7.38 1.45,5.67 2.86,11.18 3.7,17.1 2.57,18.21 -1.09,34.85 -8.61,51.49 -10.87,24.04 -31.32,41.39 -53.08,45.08 -24.23,4.11 -46.33,-4.22 -59.53,-28.83 -11.66,-21.74 -13.24,-50.42 -8.79,-76.6l-140.54 -74.63c-10.24,31.32 -34.42,51.22 -61.46,52.66 -30.07,1.6 -54.52,-19.69 -63.05,-54.26 -3.1,-12.56 -4.09,-24.41 -1.41,-37.67 1.77,-8.78 4.86,-17.33 7.43,-25.96 -19.53,-8.29 -28.31,-17.35 -29.06,-46.79 -0.36,-14.18 -0.58,-28.4 -0.57,-42.61 0,-8.11 0.07,-16.25 0.38,-24.37 0.19,-5.01 0.43,-12.02 1.58,-16.88 5.73,-24.18 30.24,-32.49 47.58,-36.81 11,-2.74 22.13,-4.49 33.21,-6.35 8.35,-1.4 17.08,-2.8 25.42,-5.13l0.12 -599.02zm1948 -856.71l0.02 -0.01 -118.43 23.24c0.41,13.14 7.37,43.86 9.26,52.38 7.86,35.38 16.63,70.47 25.06,105.61 9.22,38.47 18.35,77.16 26.04,116.24 3.3,16.76 6.37,33.71 8.71,50.78 1.78,12.99 3.34,26.85 3.32,40.18 -0.02,11.22 -0.32,22.52 -0.54,33.75 -0.3,15.57 -0.59,31.13 -0.73,46.69 -0.13,14.81 -0.18,29.69 0.26,44.45 0.17,5.66 0.38,15.91 1.49,22.64l14.78 0.5c20.38,-3.83 40.8,-7.36 61.2,-10.97 28.39,-5.02 56.78,-10.04 85.16,-15.19 26.17,-4.75 52.36,-9.55 78.48,-14.83 9.08,-1.83 18.18,-3.71 27.23,-5.85 3.18,-0.75 7.59,-1.66 11.16,-2.88 0.4,-2.73 0.63,-5.64 0.83,-8.21 0.46,-6.06 0.71,-12.17 0.89,-18.23 0.49,-15.99 0.53,-32.03 0.47,-47.99 -0.1,-28.91 -0.81,-57.74 -0.95,-86.63 -0.03,-5.47 -1.13,-12.18 -1.97,-17.49 -1.55,-9.79 -3.42,-19.52 -5.35,-29.17 -5.21,-26.06 -11.04,-51.95 -16.97,-77.72 -10.42,-45.33 -21.57,-90.3 -32.18,-135.53 -5.02,-21.41 -9.8,-42.91 -14.84,-64.31 -1.4,-5.96 -2.95,-11.9 -4.83,-17.63 -1.18,-3.62 -2.53,-7.1 -3.83,-10.65 -0.35,-0.96 -0.69,-1.93 -1.01,-2.89 -50.88,9.9 -101.44,19.74 -152.72,29.72l-0.02 0.01zm-49.7 119.87c-2.48,-20.49 4.98,-33.48 21.16,-39.56 13.46,-5.07 28.91,-4.95 42.77,-7.3 28.05,-4.74 56.1,-9.78 84.09,-15.26 15.27,-2.99 28.23,-0.29 35.4,16.83 2.76,6.59 4.32,14.22 5.68,21.5 1.51,8.05 2.82,16.14 4.74,24.05 3.25,13.41 6.57,26.8 9.79,40.23 2.34,9.76 4.68,19.6 6.62,29.52 2.05,10.49 4.97,26.36 1,37.07 -3.88,10.49 -13.06,14.12 -21.38,16.42 -5.91,1.63 -11.98,2.73 -17.94,3.82 -8,1.46 -15.99,2.87 -23.98,4.47 -22.66,4.54 -45.49,9.76 -68.18,13.62 -10.36,1.76 -25.17,4.23 -35.13,0.93 -8.73,-2.89 -13.2,-9.76 -16.38,-19.72 -1.77,-5.53 -3.03,-11.47 -4.23,-17.26 -1.59,-7.66 -3.08,-15.35 -4.73,-23 -3.13,-14.53 -6.97,-28.92 -10.49,-43.3 -3.35,-13.73 -7.09,-28.77 -8.82,-43.05zm51 12.36l17.21 75.69c5.48,-0.09 11.67,-1.05 16.85,-1.79 10.08,-1.43 20.17,-3.23 30.22,-5.15 10.25,-1.96 20.5,-4.08 30.72,-6.37 5.56,-1.24 11.2,-2.51 16.77,-3.98l-17.25 -74.76 -94.52 16.36zm94.82 -203.56c-20.67,-5.44 -41.36,-10.77 -62.06,-16.01 -25.12,-6.36 -50.28,-12.62 -75.5,-18.5 -9.26,-2.16 -18.55,-4.28 -27.86,-6.19 -4.89,-1.01 -10.47,-2.3 -15.45,-2.65 -8.71,-0.61 -18.97,0.72 -27.74,1.83 -13.27,1.68 -26.55,3.87 -39.79,6.18 -24.3,4.23 -48.65,9.31 -72.94,13.21 -46.43,7.44 -92.85,15.31 -139.33,21.71 -185.88,25.58 -371.43,58.23 -557.25,85.18 -186.71,27.07 -373.23,58.21 -559.96,84.99 -93.39,13.4 -186.97,25.33 -280.15,42.64 -88.24,16.39 -177.21,22.25 -265.32,40.16 1.96,1.32 3.93,2.6 5.9,3.88 9.6,6.22 19.32,12.19 29.05,18.12 15.7,9.56 31.48,18.9 47.26,28.28 9.62,5.71 18.71,12.54 28.11,18.72 4.53,2.98 14.48,9.48 19.82,9.12 22.67,-1.53 45.77,-7.88 68.43,-11.47 92.81,-14.7 185.56,-30.68 278.34,-45.95l1108.14 -182.43c92.43,-15.22 184.74,-32.54 277.25,-46.27 20.13,-2.99 40.33,-6.69 60.43,-10.24 28.88,-5.1 57.75,-10.29 86.63,-15.4 27.44,-4.85 54.89,-9.68 82.35,-14.12 10.03,-1.62 20.07,-3.21 30.11,-4.58 0.52,-0.07 1.04,-0.14 1.56,-0.21zm-263.59 105.45c-2.66,-0.37 -8.57,0.35 -10.97,0.57 -8.91,0.83 -17.85,1.99 -26.75,3.17 -29.74,3.96 -59.49,8.6 -89.19,13.27 -89.33,14.06 -178.64,29.13 -267.92,44.22 -95.7,16.18 -191.39,32.58 -287.09,48.79 -37.73,6.39 -75.47,12.76 -113.21,18.99 -24.32,4.01 -48.68,8.06 -73.03,11.59 -117.47,17.01 -234.75,38.62 -352.09,58.11 -55.94,9.29 -111.86,21.73 -167.94,28.18l39.24 200.85 1388.17 -254.36c-1.78,-13.86 -4.7,-27.92 -7.61,-41.25 -3.42,-15.68 -7.21,-31.19 -11.03,-46.7l-17.98 -81.35c-0.39,-0.96 -0.74,-1.91 -1.09,-2.87 -0.53,-0.38 -1.03,-0.77 -1.53,-1.21zm-1719.27 280.63c0.15,1.1 0.31,2.18 0.45,3.2 0.73,5.05 1.59,10.09 2.47,15.09 2.69,15.21 5.68,30.35 8.7,45.44 8.52,42.61 17.5,85.07 26.39,127.53 9.15,43.72 18.35,87.44 27.05,131.33 3.32,16.71 6.59,33.47 9.56,50.31 1.78,10.1 3.82,21.14 4.69,31.48 1.81,21.6 0.68,44.92 -0.1,66.82 -0.4,11.21 -0.8,22.44 -0.84,33.63 -0.04,9.55 0.14,19.37 1.18,28.75 0.11,0.98 0.82,7.19 1.8,7.54 1.72,0.62 9.72,-1.29 11.76,-1.66 47.85,-8.62 95.7,-16.94 143.53,-25.83 25.17,-4.67 50.36,-9.42 75.49,-14.68 8.68,-1.82 17.38,-3.68 26.03,-5.83 2.8,-0.7 6.95,-1.6 10.25,-2.77 1.1,-9.75 1.44,-20 1.67,-29.65 0.34,-14.36 0.29,-28.73 0.13,-43.05 -0.29,-27.29 -1.25,-54.67 -1.12,-81.98 0.06,-12.69 0.5,-25.55 0.13,-38.19 -0.36,-12.15 -1.71,-23.42 -4.13,-35.05 -4.95,-23.83 -9.31,-48.02 -13.8,-72.02 -6.22,-33.27 -12.44,-66.55 -18.91,-99.73 -5.99,-30.75 -12.12,-61.63 -19.13,-91.99 -2.46,-10.67 -5.04,-21.44 -8.08,-31.84 -0.95,-3.26 -2.71,-9.36 -4.49,-13.25l-280.7 46.41zm247.87 222.44c17.15,-3.39 35.68,-4.07 37.8,21.98 2.39,29.36 -15.36,34.73 -34.72,37.7 -32.44,4.97 -64.78,11.38 -97.12,17.76 -17.75,3.5 -38.47,5.47 -40,-22.62 -1.45,-26.83 16.96,-33.62 34.65,-37.1 33.09,-6.53 66.3,-11.17 99.38,-17.72zm147.16 38.21l1389.01 -254.75 -12.39 -55.05c-2.59,0.16 -5.32,0.54 -7.74,0.85 -6.49,0.81 -12.99,1.8 -19.48,2.83 -17.84,2.83 -35.68,6 -53.5,9.23 -30.92,5.6 -61.8,11.62 -92.71,17.28l-522.92 95.71c-230.65,42.21 -460.97,89.28 -691.89,127.35l11.61 56.55zm1296.64 -158.35c17.51,19.89 31.66,42.4 43.06,68.75 3.69,8.53 6.1,18.67 10.06,26.93 8.92,-0.44 17.88,-1.81 26.74,-3.59 3.87,-0.77 8.71,-1.44 12.5,-2.64l7.65 -4.33c0.66,-4.64 0.87,-13.18 0.99,-16.3 0.42,-11.7 0.53,-23.44 0.54,-35.11 0.02,-12.08 -0.08,-24.16 -0.34,-36.21 -0.12,-5.57 -0.19,-11.67 -0.53,-17.44l-100.67 19.95zm-1911.8 -197.69c-1.36,24.96 -1.52,50.4 -1.66,75.21 -0.21,37.45 0.06,74.9 0.41,112.31 0.36,39.31 0.85,78.61 1.21,117.93 0.31,33.33 0.59,66.72 0.29,100.09 -0.05,5.36 -0.26,10.76 -0.24,16.11 0.01,2.25 0.04,5.31 0.7,7.39 1.3,4.1 8.87,8.7 11.81,10.72 5.61,3.86 11.15,7.95 16.67,11.98 9.4,6.86 18.79,13.77 28.17,20.68 25.03,18.43 50.04,36.9 75.1,55.28 24.45,17.93 48.93,35.84 73.59,53.36 8.69,6.17 17.41,12.33 26.22,18.24 2.42,1.63 4.86,3.24 7.33,4.79 0.31,-17.32 0.72,-34.61 0.66,-51.92 -0.04,-10.73 -0.22,-21.5 -0.81,-32.16 -0.45,-8.16 -1.11,-16.97 -2.7,-24.84l-75.29 -372.93c-1,-5.3 -1.75,-10.54 -2.48,-15.88 -0.31,-2.27 -0.65,-5.39 -1.4,-7.46 -1.41,-3.89 -8.53,-7.39 -11.46,-9.04 -11.62,-6.57 -23.11,-13.87 -34.5,-20.99 -15.83,-9.89 -31.61,-19.89 -47.42,-29.82 -14.79,-9.3 -29.6,-18.6 -44.52,-27.6 -5.35,-3.23 -10.72,-6.43 -16.15,-9.46 -1.1,-0.62 -2.3,-1.3 -3.53,-1.97zm786.62 400.7c15.91,24.49 28.35,54.53 36.96,83.88 8.51,28.99 13.01,61.25 15.88,92.21 3.34,36.09 4.59,72.84 5.01,109.38 0.44,37.35 -0.04,74.79 -0.66,112.22 -0.56,33.48 -1.31,67.03 -1.28,100.47l0.19 220.04c0.01,7.23 -0.25,14.47 -0.25,21.68 0,1.24 0.01,5.97 0.51,7.3 2.43,0.66 19.91,-4.18 22.42,-4.76 70.69,-16.41 141.53,-31.15 212.29,-46.89l639.39 -142.22c14.23,-3.17 28.66,-5.75 42.94,-8.53 22.35,-4.36 44.69,-8.76 67.02,-13.43 21.3,-4.46 42.73,-9.06 63.92,-14.61 4.8,-1.26 27.74,-7.31 31.77,-10.83 1.79,-3.46 2.73,-16.37 2.95,-19.93 0.8,-13.17 0.79,-26.62 0.65,-39.76 -0.15,-14.07 -0.54,-28.12 -0.97,-42.15 -0.3,-9.86 -0.74,-19.88 -0.75,-29.76 -0.03,-46.48 0.09,-92.98 0.04,-139.46 -0.05,-45.96 1.42,-92.04 1.33,-138.03 -0.04,-23.63 -0.42,-47.3 -1.67,-70.78 -1.08,-20.2 -2.78,-40.86 -6.22,-60.49 -10.97,-62.55 -43.28,-127.95 -96.35,-144.72 -10.78,-3.4 -27.84,-2.19 -39.16,-1.24 -19.47,1.64 -39.12,4.75 -58.52,8.13 -20.31,3.54 -40.58,7.56 -60.85,11.61 -15.61,3.12 -31.32,6.45 -46.97,9 -210.54,34.41 -420.43,79.35 -630.87,115.51 -66.25,11.38 -132.66,21.99 -198.71,36.16zm1195.15 -30.57c0.88,24.9 3.5,49.46 3.49,74.6l-0.05 257.23c-0.01,56.82 0.06,113.64 -0.01,170.46 -0.07,63.95 1.4,100.02 -56.96,111.37l0.36 14.15 127.94 63.87c13.69,6.84 27.14,14.29 40.81,21.1 8.36,4.16 16.82,7.95 25.95,9.34 9.9,1.51 20.2,0.21 30.19,-1.62 16.54,-3.03 33.32,-7.51 49.8,-11.8l-0.3 -21.21c-18.4,-8.48 -36.68,-17.27 -54.99,-26.01 -9.08,-4.34 -21.12,-8.24 -28.7,-15.46 -9.78,-9.31 -11.88,-23.67 -12.06,-38.6 -2.37,-196.51 4.44,-393.81 0.69,-590.19 -12.25,2.06 -24.57,4.87 -36.83,6.94 -11.29,1.9 -30.23,5.09 -41,2.07 -8.98,-2.51 -19,-8.98 -27.18,-13.98 -6.7,-4.1 -13.92,-8.75 -21.15,-12.26zm-1351.77 142.68l128.12 -22.92c-4.78,-20.64 -29,-51.12 -41.33,-60.31 -12.65,-9.42 -26.56,-11.2 -41.56,-9.73 -15.17,1.49 -30.6,5.9 -45.77,9.21l0.54 83.74zm-0.99 76.25c-1.99,68.56 -37.2,69.33 -84.45,78.06 -21.56,3.98 -43.18,7.18 -64.76,10.9 -19.85,3.42 -39.95,7.17 -59.64,12.63l0.67 480 360.85 -78.29c2.18,-43.77 2.09,-87.81 1.67,-131.43 -0.45,-45.93 -1.49,-91.82 -1.51,-137.79 -0.02,-44.95 1.42,-90.05 1.46,-135.04 0.02,-23.41 -0.25,-46.87 -1.33,-70.16 -0.85,-18.25 -2.15,-37.05 -4.92,-54.93 -6.59,-0.59 -18.39,1.3 -23.52,2.07 -15.27,2.3 -30.59,5.38 -45.81,8.49 -16.09,3.29 -32.17,6.74 -48.27,9.98 -9.89,2 -20.37,4.26 -30.44,5.51zm-208.41 740.04l1448.7 -309.81 -0.29 -21.27c-4.17,0.44 -8.63,1.33 -12.49,1.99 -10.33,1.8 -20.66,3.85 -30.97,5.94 -28.79,5.84 -57.57,12.15 -86.32,18.52 -49.52,10.97 -98.98,22.54 -148.5,33.5 -93.97,20.8 -187.87,42.4 -281.93,62.28 -93.73,19.8 -187.14,42.91 -280.85,62.98 -14.09,3.02 -28.22,6.56 -42.28,9.86 -22.25,5.22 -44.51,10.34 -66.81,15.13 -21.71,4.66 -43.61,9.15 -65.41,12.43 -9.02,1.36 -31.37,4.86 -39.61,1.48 -12.07,-4.95 -20.52,-13.75 -25.66,-27.97 -1.86,-5.14 -3.12,-10.49 -4.32,-15.94 -0.64,-2.87 -1.27,-5.94 -2.08,-8.84l-359.09 78.37 -2.09 81.36zm-308.63 -7.72l0.39 27.16 239.32 129.8c7.47,4.36 14.08,6.62 22.61,5.5 3.94,-0.51 7.9,-1.59 11.8,-2.62 5.27,-1.4 10.51,-2.78 15.82,-3.84 14.2,-2.86 36.17,-3.31 49.71,-11.42l0.07 -18.74c-2.79,-2.41 -6.09,-4.54 -9.01,-6.38 -5.1,-3.22 -10.36,-6.17 -15.62,-9.02 -10.22,-5.53 -20.61,-10.6 -30.82,-16.13 -6.25,-3.39 -12.73,-6.4 -18.9,-9.93 -4.48,-2.57 -8.8,-5.54 -11.86,-10.37 -3.28,-5.17 -4.56,-11.56 -5.24,-18.1 -1.02,-9.84 -0.94,-20.62 -0.94,-30.63l0.31 -644.61c-5.42,0.55 -10.9,1.54 -16.24,2.59 -8.06,1.58 -16.11,3.41 -24.16,5.12 -13.24,2.82 -31.11,6.84 -44.16,4.97 -10.65,-1.52 -23.02,-11.03 -31.88,-17.76 -6.6,-5.02 -15.05,-12.03 -22.97,-16.41 4.22,196.37 -1.61,393.8 0.02,590.44 0.12,14.63 -1.57,33.73 -9.98,45.72 -10.18,14.5 -25.04,12 -37.22,5.68 -7.04,-3.65 -16.08,-9.45 -24.03,-9.32 -4.53,0.07 -9.55,1.3 -14.04,2.4 -7.67,1.87 -15.32,3.93 -22.98,5.9zm2057.76 -159.98c-6.08,0.42 -12.78,0.85 -18.54,2.8 -4.58,1.55 -8.68,4.09 -10.37,9.96 -3.93,13.62 -0.7,26.18 10.36,30.58 9.36,3.73 19.93,-0.72 24.22,-12.79 5.42,-15.22 0.36,-20.35 -5.67,-30.55zm-1787.05 421.38c1.34,13.78 11.47,20.05 22.19,17.78 12.03,-2.56 18.69,-14.02 16.98,-28.67 -1.6,-13.72 -11.14,-20.43 -22.08,-17.86 -11.85,2.79 -18.48,14.48 -17.09,28.75z"/>
  </g>
 </g>
</svg>
