<?xml version="1.0" encoding="UTF-8"?>
<!DOCTYPE svg PUBLIC "-//W3C//DTD SVG 1.1//EN" "http://www.w3.org/Graphics/SVG/1.1/DTD/svg11.dtd">
<!-- Creator: CorelDRAW -->
<svg xmlns="http://www.w3.org/2000/svg" xml:space="preserve" width="11.4104in" height="7.42559in" version="1.1" style="shape-rendering:geometricPrecision; text-rendering:geometricPrecision; image-rendering:optimizeQuality; fill-rule:evenodd; clip-rule:evenodd"
viewBox="0 0 39638.61 25795.76"
 xmlns:xlink="http://www.w3.org/1999/xlink"
 xmlns:xodm="http://www.corel.com/coreldraw/odm/2003">
 <defs>
  <style type="text/css">
   <![CDATA[
    .fil0 {fill:#010101}
   ]]>
  </style>
 </defs>
 <g id="Layer_x0020_1">
  <metadata id="CorelCorpID_0Corel-Layer"/>
  <path class="fil0" d="M3698.72 7406.98c-672.68,130.13 -751.35,1123.46 224.15,1125.91 594.17,1.5 1841.84,68.74 2362.31,-12.35 309.31,-48.2 541.01,-301.96 446.4,-713.68 -76.51,-332.93 -361.37,-412.01 -729.9,-415.58 -502.11,-4.86 -1906.88,-60.93 -2302.95,15.7zm31465.09 541.01c121.01,841.91 1443.54,741.76 1362.33,-181.53 -75.93,-863.37 -1495.08,-742.07 -1362.33,181.53zm-6.32 -2508.92c90.5,829.55 1452.98,755.78 1369.6,-182.41 -75.48,-849.55 -1472.69,-762.47 -1369.6,182.41zm-7334.77 3613.62c-41.22,-442.27 -89.12,-851.76 -166.94,-1284.54 -56.42,-313.76 -236.42,-855.24 -256.38,-1105.44l2496.02 0.9 -2.08 2403.99 -2070.62 -14.92zm3857.22 -7872.58c306.14,-59.58 3587.48,-21.83 4190.26,-22.4 2287.47,-2.2 2648.85,-275.2 2652.01,1531.2 2.49,1415.24 -1.53,2830.65 0.53,4245.87 5.91,4051.82 339.4,3551.12 -2749.03,3547.81 -707.64,-0.77 -1415.3,0.42 -2122.93,0.49 -2532.9,0.27 -2646.6,275.2 -2645.61,-1521.85l1.26 -6368.82c2.17,-759.69 -43.38,-1272.76 673.51,-1412.29zm-10690.74 13842.88l5038.3 -0.04c622.18,-2.08 1637.07,183.65 1831.22,-368.88 119.44,-339.85 -49.29,-3675.81 52.25,-4425.69l2013.48 -4.98c312.58,1076.24 828.74,1072.94 1280.76,1391.47l0.44 7439.05c-2680.81,60.36 -5435.34,4.81 -8121.32,2.13 -698.36,-0.7 -1396.74,-1 -2095.13,-1.07l0 -0.41c-1474.52,-0.19 -2949.04,0.03 -4423.48,1.15 -525.61,0.4 -7822.38,48.8 -8134.76,-24.34l-0.37 -7401.77c527.42,-300.36 990.07,-204.3 1437.1,-1400.68l1880.8 -7.25c93.78,844.88 -83.4,3959.7 33.22,4396.12 159.51,596.98 1169.58,403.63 1792.6,403.83 739.83,0.23 1479.57,2.3 2219.44,1.44l5195.45 -0.04 0 -0.05zm-2339.79 5194.02l0 0.7 12555.91 0.9 -8.62 2823.38c-653.82,9.79 -1092.8,-50.43 -1101.23,680.64 -25.68,2229.86 -157.17,2066.55 1432.35,2068.46l3522.15 1.18c1314.86,1.86 1399.83,161.58 1288.75,-2162.84 -32.44,-678.65 -567.04,-577.8 -1164.73,-586.35l-0.74 -11409.28c2294.15,33.34 4484.25,452.32 4464.2,-2190.09 -16.8,-2216.63 2,-4440.75 1.11,-6658.31 -0.49,-1266.99 -13.4,-1897.94 -881.19,-2453.58 -742.29,-475.29 -2060.84,-300.22 -3031.92,-300.66 -1109.71,-0.49 -2219.46,0.94 -3329.17,-0.38 -587.8,-0.7 -1000.41,-46.16 -1489.25,203 -593.87,302.71 -742.88,752.48 -841.71,791.76l-9076.13 -0.07 0 -0.08 -11274.77 -0.08c-156.5,-162.53 -220.91,-311.41 -381.09,-464.49 -627.68,-599.93 -1166.44,-531.38 -1983.09,-528.87 -1109.17,3.42 -2219.79,-0.86 -3329.16,-1.12 -890.38,-0.21 -2393.13,-142.36 -3071.23,262.13 -1016.59,606.41 -948.58,1464.85 -948.59,2395.95 -0.03,2234.35 10.97,4472.68 -1.19,6706.55 -15.58,2861.4 2401.5,2178.86 4439.38,2240.13 79.86,376.62 25.33,4929.58 23.88,5720.88 -2.17,1175.59 59.23,4822.81 -11,5682.48 -634.34,18.14 -1118.54,-69.55 -1137.84,636.01 -62.53,2287.77 -105.68,2118.89 1382.08,2116.79l3522.14 0.67c1353.51,-4.01 1434.87,207.68 1332.68,-2162.02 -33.41,-774.79 -754,-532.05 -1121.97,-606.14l15.76 -2807.98 10204.22 0.74zm0 -18009.64l0 0.47 11247.65 0.55 -4.65 3296.87 -8903.2 -1.18 0 -1.27 -11100.77 -1.45 12.46 -3294.42 8748.52 0.44zm2339.79 4456.98l5182.28 -3.27c745.12,1291.8 615.26,5658.34 591.36,7225.67l-8113.42 2.09 0 2.5 -5760.47 1.48c-23.1,-1917.09 -141.51,-5672.68 570.61,-7217.57l7529.66 -4.75 0 -6.15zm11337.61 4967.85l1720.36 1.26 -1.19 11404.71 -1710.42 9.1 -8.75 -11415.06zm-1119.47 12816.79c-1.44,-349.99 -51.42,-278.55 1140.72,-272.76l2833.2 6.07 37.43 465.17 -4010.4 4.4 -0.96 -202.89zm-21310.32 -17785.45l2351.24 6.88c-17.05,268.54 -196.4,808.37 -260.75,1139.32 -78.79,405.17 -130.93,805.47 -174.57,1228.16 -222.18,57.77 -1725.19,61.11 -1925.57,-5.21l9.64 -2369.14zm-8038.78 -5484.57c308.22,-59.45 3626.71,-20.47 4237.55,-20.28 2376.69,0.74 2671.48,-291.01 2681.59,1530.21 7.84,1413.97 -3.49,2831.42 -2.82,4245.87 1.89,4021.79 424.14,3574.91 -2823.53,3549.87 -706.9,-5.46 -1415.85,-2.34 -2122.93,-1.24 -2454.31,3.77 -2715.49,301.5 -2720.58,-1522.18l0.01 -6368.82c1.9,-765 20.52,-1272.61 750.7,-1413.43zm5426.99 10454.64l22.1 11405.52 -1714.31 6.66c-68.71,-2164.73 -0.34,-4404.6 -4.7,-6557.8 -0.64,-315.59 -60.3,-4767.01 56.24,-4835.67 64.1,-37.76 1448.77,-21.73 1640.68,-18.71zm1147.93 12985.53c-217.32,71.23 -3756.24,73.2 -4000.93,2.98 -7.29,-608.23 -110.77,-443.15 2001.29,-444.03l1878.54 1.31c194.85,35.4 129.64,203.33 121.09,439.74z"/>
 </g>
</svg>
